<svg xmlns="http://www.w3.org/2000/svg" width="82.404" height="78.692" viewBox="0 0 82.404 78.692">
  <g id="icons" transform="translate(-1232.033 -456.574)">
    <path id="telescope" d="M82.5,19.777a8.149,8.149,0,0,0,1.1-8.932,8.216,8.216,0,0,0-7.833-4.4L74.533,4.112a1.407,1.407,0,0,0-.824-.687,1.076,1.076,0,0,0-1.1.137L62.166,8.921a1.407,1.407,0,0,0-.687.824,1.076,1.076,0,0,0,.137,1.1l.962,1.786L22.041,33.244a1.407,1.407,0,0,0-.687.824,1.076,1.076,0,0,0,.137,1.1l.962,1.786-7.7,3.985L2.8,46.985a1.268,1.268,0,0,0-.55,1.786l3.023,5.909a1.407,1.407,0,0,0,.824.687h.412A1.239,1.239,0,0,0,7.2,55.23l7.7-3.985a5.387,5.387,0,0,0,2.886,2.336,6.9,6.9,0,0,0,1.649.275,7.232,7.232,0,0,0,2.473-.55A5.5,5.5,0,0,0,24.514,46.3l2.061-1.1.962,1.786a1.443,1.443,0,0,0,1.237.687,1.239,1.239,0,0,0,.687-.137L46.913,38.6l4.947,9.482a5.153,5.153,0,0,0-.137,1.512,6.152,6.152,0,0,0,.55,2.748h-2.2a9.42,9.42,0,0,0-9.207,7.283L35.645,80.24a1.4,1.4,0,0,0,.275,1.237,1.25,1.25,0,0,0,1.1.55h5.5a1.655,1.655,0,0,0,1.374-.962l5.634-18.139A3.712,3.712,0,0,1,53.1,60.315a1.084,1.084,0,0,1,1.1,1.1V80.652a1.3,1.3,0,0,0,1.374,1.374H62.3a1.3,1.3,0,0,0,1.374-1.374V61.414a1.084,1.084,0,0,1,1.1-1.1,4.152,4.152,0,0,1,2.2.687,3.855,3.855,0,0,1,1.374,1.924l5.634,18.139a1.365,1.365,0,0,0,1.374.962h5.5a1.25,1.25,0,0,0,1.1-.55,1.4,1.4,0,0,0,.275-1.237L77.007,59.628A9.537,9.537,0,0,0,67.8,52.344H65.739a6.152,6.152,0,0,0,.55-2.748A7.132,7.132,0,0,0,61.754,43l-4.81-9.344,13.192-6.733.962,1.786a1.407,1.407,0,0,0,.824.687h.412a1.239,1.239,0,0,0,.687-.137L83.465,23.9a1.268,1.268,0,0,0,.55-1.786Zm-1.374-7.7a5.254,5.254,0,0,1,0,4.947L77.144,9.2A5.352,5.352,0,0,1,81.129,12.082ZM7.062,52.207,5.276,48.634l9.482-4.81.412.962a.135.135,0,0,1-.137.137c-.137.137-.275.412-.412.55,0,.137-.137.137-.137.275a1.953,1.953,0,0,0-.275.824v.137a1.743,1.743,0,0,0-.137.824v1.237Zm13.6-1.374a2.458,2.458,0,0,1-2.2.137A3.209,3.209,0,0,1,16.819,49.6c-.137-.137-.137-.412-.275-.55a2.848,2.848,0,0,1,.962-2.886c.137-.137.275-.275.412-.275.137-.137.412-.137.55-.275h1.374c.137,0,.275.137.412.137a.135.135,0,0,1,.137.137c.137,0,.137.137.275.137l.137.137.412.412h0c.137.137.275.275.275.412h0A2.474,2.474,0,0,1,20.666,50.833ZM23,44.1c-.137-.137-.275-.137-.275-.275-.137-.137-.275-.137-.412-.275s-.275-.137-.412-.275a.5.5,0,0,0-.412-.137c-.137,0-.275-.137-.412-.137s-.275-.137-.412-.137H18.88a.5.5,0,0,0-.412.137c-.137,0-.412.137-.55.137h-.137l-.687-.55,6.459-3.3,1.786,3.573ZM73.984,60.452l4.672,18.826H76.045L70.823,62.1a6.363,6.363,0,0,0-2.336-3.3,6.428,6.428,0,0,0-3.848-1.237,3.841,3.841,0,0,0-3.848,3.848V79.278H56.807V61.414a3.841,3.841,0,0,0-3.848-3.848A6.652,6.652,0,0,0,46.775,62.1L41.554,79.278H38.943l4.672-18.826a6.653,6.653,0,0,1,6.6-5.084h4.122c.137.137.275.137.412.275s.412.275.55.412.275.137.412.275a6.905,6.905,0,0,0,3.3.824,6.528,6.528,0,0,0,3.3-.824c.137,0,.275-.137.412-.137.137-.137.412-.275.55-.412s.275-.137.275-.275h4.122A6.172,6.172,0,0,1,73.984,60.452ZM63.265,49.734a3.979,3.979,0,0,1-1.374,3.161,4.719,4.719,0,0,1-4.81.962,5.674,5.674,0,0,1-1.512-.962A4.473,4.473,0,0,1,54.2,49.734a3.8,3.8,0,0,1,.137-1.237c.137-.275.137-.55.275-.824l.137-.137c.137-.137.275-.412.412-.55l.137-.137.55-.55.137-.137a7.279,7.279,0,0,1,1.374-.824h.275c.137,0,.412-.137.55-.137h1.1c.275,0,.55.137.824.137h0A4.907,4.907,0,0,1,63.265,49.734Zm-5.359-7.146c-.275,0-.687.137-.962.137a.5.5,0,0,0-.412.137,4.881,4.881,0,0,0-1.237.55h0a2.465,2.465,0,0,0-.962.687c-.137.137-.275.137-.275.275-.275.137-.412.412-.687.687l-.137.137-3.848-7.7,4.947-2.611,3.848,7.558C58.043,42.451,58.043,42.588,57.906,42.588ZM29.324,44.512l-3.161-6.046-.824-1.649h0l-.962-1.786L63.815,14.967l4.81,9.482ZM72.609,26.1l-7.97-15.391,7.97-4.122.962,1.924h0l1.924,3.71,5.084,9.756Z" transform="translate(1229.974 453.239)" fill="#2a2a2d"/>
  </g>
</svg>
